<?xml version="1.0" encoding="utf-8"?>
<!-- Generator: Adobe Illustrator 23.0.3, SVG Export Plug-In . SVG Version: 6.00 Build 0)  -->
<svg version="1.1" id="_x31_" xmlns="http://www.w3.org/2000/svg" xmlns:xlink="http://www.w3.org/1999/xlink" x="0px" y="0px"
	 viewBox="0 0 65.29 56.97" style="enable-background:new 0 0 65.29 56.97;" xml:space="preserve">
<style type="text/css">
	.st0{fill-rule:evenodd;clip-rule:evenodd;fill:#DD3312;}
	.st1{fill-rule:evenodd;clip-rule:evenodd;fill:#54AE2F;}
	.st2{fill-rule:evenodd;clip-rule:evenodd;fill:#FEC90C;}
	.st3{fill-rule:evenodd;clip-rule:evenodd;fill:#644434;}
	.st4{fill-rule:evenodd;clip-rule:evenodd;fill:#FFFFFF;}
	.st5{fill-rule:evenodd;clip-rule:evenodd;fill:#BB7200;}
	.st6{fill-rule:evenodd;clip-rule:evenodd;fill:#5894CF;}
	.st7{fill-rule:evenodd;clip-rule:evenodd;fill:#595A5A;}
	.st8{fill-rule:evenodd;clip-rule:evenodd;fill:#008BD2;}
</style>
<path class="st6" d="M15.17,32.45c1.25,0.49,0.98,0.33,1.4,1.77c0.94,3.2,1.92,6.14,2.87,9.32c3.24,10.76,2.84,10.82,7.44,7.07
	c7.6-6.18,6.89-6.79,11.26-3.71l12.58,9.17c3.58,2.7,3.77-2.77,4.38-5.7L65.18,2.29c0.22-0.94,0.09-1.51-0.26-1.84
	c-0.26-0.24-0.63-0.34-1.06-0.35h-0.11c-0.78,0.01-1.75,0.31-2.58,0.65L7.58,21.42C-8.49,27.46,4.9,28.4,15.17,32.45L15.17,32.45z
	 M27.4,37.58c-0.02,0.13-0.46,11.34-1.99,9.49c-0.86-1.03-1.94-6.09-2.2-7c-2.77-9.45-3.71-8.18,9.35-16.12l22.09-12.79
	C62.83,6.83,28.07,32.82,27.4,37.58z"/>
</svg>
