<?xml version="1.0" encoding="utf-8"?>
<!-- Generator: Adobe Illustrator 18.1.1, SVG Export Plug-In . SVG Version: 6.00 Build 0)  -->
<svg version="1.1" id="_x31_" xmlns="http://www.w3.org/2000/svg" xmlns:xlink="http://www.w3.org/1999/xlink" x="0px" y="0px"
	 viewBox="0 0 65.7 56.7" enable-background="new 0 0 65.7 56.7" xml:space="preserve">
<path fill-rule="evenodd" clip-rule="evenodd" fill="#C13D1B" d="M56.1,2.3c-2.7-1.5-5.7-2.3-9-2.3c-5.8,0-10.9,2.6-14.3,6.7
	C29.5,2.6,24.3,0,18.6,0c-3.2,0-6.3,0.8-9,2.3C3.9,5.5,0,11.6,0,18.6c0,2,0.3,3.9,0.9,5.7c3.2,14.3,32,32.4,32,32.4
	s28.7-18.1,31.9-32.4c0.6-1.8,0.9-3.7,0.9-5.7C65.7,11.6,61.9,5.5,56.1,2.3L56.1,2.3z"/>
</svg>
