<?xml version="1.0" encoding="utf-8"?>
<!-- Generator: Adobe Illustrator 18.1.1, SVG Export Plug-In . SVG Version: 6.00 Build 0)  -->
<svg version="1.1" id="_x31_" xmlns="http://www.w3.org/2000/svg" xmlns:xlink="http://www.w3.org/1999/xlink" x="0px" y="0px"
	 viewBox="0 0 47.8 56.7" enable-background="new 0 0 47.8 56.7" xml:space="preserve">
<path fill-rule="evenodd" clip-rule="evenodd" fill="#C13D1B" d="M2.2,27.1c0.1,0.1,0.2,0.3,0.1,0.5c-0.4,1.4-0.4,2.8,0.1,4.2
	c0.7,1.9,2,3.4,4.4,3.7c1.1,0.2,2.3,0.1,3.4,0.1c0.8,0,1.6,0,2.5,0c0,0,0,0,0,0c1.5,0,3.1,0,3.6,0c3.4,0.1-0.5,4.4,0.1,15.1
	c0.4,6.2,6,8.1,7.9,3.6c0.5-1.3,0.9-2.6,1.2-3.9c1.4-5.7,4.3-11.7,9.2-15c2-1.3,9.3-2,11.5-2.2h0.2c0.6,0,1.2-0.5,1.2-1.2V5.2
	c0-0.6-0.5-1.2-1.2-1.2h-0.2c-8.1-0.8-13.1-3.9-22.1-4c-2.8,0-5.6,0-8.4,0c-1.6,0-3.2,0-4.7,0C9.1,0,7.5,0.8,6.4,2.4
	C5.3,4.1,5.1,5.9,5.6,7.8C5.7,8,5.7,8.2,5.4,8.3c-1.7,0.8-2.6,2.1-3,3.7c-0.4,1.3-0.3,2.7,0.1,3.9C-2.1,19.3,0.8,26.2,2.2,27.1z"/>
</svg>
