<?xml version="1.0" encoding="utf-8"?>
<!-- Generator: Adobe Illustrator 23.0.3, SVG Export Plug-In . SVG Version: 6.00 Build 0)  -->
<svg version="1.1" id="Слой_1" xmlns="http://www.w3.org/2000/svg" xmlns:xlink="http://www.w3.org/1999/xlink" x="0px" y="0px"
	 viewBox="0 0 263.6 250" style="enable-background:new 0 0 263.6 250;" xml:space="preserve">
<style type="text/css">
	.st0{fill:#FDCB67;}
	.st1{display:none;}
	.st2{display:inline;fill:none;stroke:#F6C86D;stroke-miterlimit:10;}
	.st3{display:inline;fill:#FDCB67;}
	.st4{fill:none;stroke:#FDCB67;stroke-width:10;stroke-miterlimit:10;}
</style>
<g id="закрашена">
	<polygon class="st0" points="131.8,4.6 170.9,83.8 258.2,96.5 195,158.1 209.9,245.1 131.8,204 53.6,245.1 68.6,158.1 5.3,96.5 
		92.7,83.8 	"/>
</g>
<g id="половина" class="st1">
	<polygon class="st2" points="131.8,4.6 170.9,83.8 258.2,96.5 195,158.1 209.9,245.1 131.8,204 53.6,245.1 68.6,158.1 5.3,96.5 
		92.7,83.8 	"/>
	<polygon class="st3" points="132,5 131.8,4.6 92.7,83.8 5.3,96.5 68.6,158.1 53.6,245.1 131.8,204 132,204.1 	"/>
</g>
<g id="не_закрашена">
	<polygon class="st4" points="131.8,12.9 169.1,87.3 252.5,99.2 192.1,157.1 206.4,238.8 131.8,200.2 57.2,238.8 71.4,157.1 
		11.1,99.2 94.5,87.3 	"/>
</g>
</svg>
