<?xml version="1.0" encoding="utf-8"?>
<!-- Generator: Adobe Illustrator 18.1.1, SVG Export Plug-In . SVG Version: 6.00 Build 0)  -->
<svg version="1.1" id="_x31_" xmlns="http://www.w3.org/2000/svg" xmlns:xlink="http://www.w3.org/1999/xlink" x="0px" y="0px"
	 viewBox="0 0 47.1 56.7" enable-background="new 0 0 47.1 56.7" xml:space="preserve">
<path fill-rule="evenodd" clip-rule="evenodd" fill="#80BC2C" d="M44.9,29.6c-0.1-0.1-0.2-0.3-0.1-0.5c0.4-1.4,0.4-2.8-0.1-4.2
	c-0.7-1.9-2-3.4-4.4-3.7c-1.1-0.2-2.3-0.1-3.4-0.1c-0.8,0-1.6,0-2.5,0c0,0,0,0,0,0c-1.5,0-3.1,0-3.6,0c-3.4-0.1,0.5-4.4-0.1-15.1
	c-0.4-6.2-6-8.1-7.9-3.6c-0.5,1.3-0.9,2.6-1.2,3.9c-1.4,5.7-4.3,11.7-9.2,15c-2,1.3-8.6,2-10.9,2.2H1.2C0.5,23.5,0,24,0,24.7v26.8
	c0,0.6,0.5,1.2,1.2,1.2h0.2c8.1,0.8,12.5,3.9,21.4,4c2.8,0,5.6,0,8.4,0c1.6,0,3.2,0,4.7,0c2.1,0,3.7-0.8,4.8-2.4
	c1.1-1.7,1.4-3.5,0.8-5.4c-0.1-0.3-0.1-0.4,0.2-0.6c1.7-0.8,2.6-2.1,3-3.7c0.4-1.3,0.3-2.7-0.1-3.9C49.2,37.4,46.3,30.5,44.9,29.6z"
	/>
</svg>
