<?xml version="1.0" encoding="utf-8"?>
<!-- Generator: Adobe Illustrator 18.1.1, SVG Export Plug-In . SVG Version: 6.00 Build 0)  -->
<svg version="1.1" id="_x31_" xmlns="http://www.w3.org/2000/svg" xmlns:xlink="http://www.w3.org/1999/xlink" x="0px" y="0px"
	 viewBox="0 0 77.2 39.6" enable-background="new 0 0 77.2 39.6" xml:space="preserve">
<path fill-rule="evenodd" clip-rule="evenodd" fill="#525353" d="M52.3,32.1c3.1-3.4,4.7-7.8,4.7-12.4c0-3.9-1.2-7.5-3.3-10.6
	c5.8,2.6,10,6.5,14.6,11.4C63.7,24.8,59.5,29.3,52.3,32.1L52.3,32.1z M38.6,33.7c7.6,0,13.9-6.4,13.9-14c0-7.7-6.2-13.9-13.8-13.9
	c0,0-0.1,0-0.1,0c-7.7,0-13.8,6.3-13.7,14.1C24.8,27.4,31,33.7,38.6,33.7C38.5,33.7,38.5,33.7,38.6,33.7L38.6,33.7z M8.1,20.5
	c4.1-4.3,8.6-9.2,15.9-12.3c-2.6,3.3-4,7.4-4,11.7c0,4.6,1.8,9,5,12.5C17.5,29.7,13,25,8.1,20.5L8.1,20.5z M76.8,19.3
	C66.1,7.9,52.9,0.7,39,0L38,0c0,0,0,0-0.1,0c-0.1,0-0.1,0-0.2,0C20,0.6,8.3,10.9,0.4,19.3C0.1,19.6,0,20,0,20.4c0,0.4,0.2,0.7,0.5,1
	c7.5,7,15.6,14.5,29.1,17.2c2.7,0.6,5.2,0.9,7.9,1c0,0,1.3,0.1,2.5,0c2.8-0.2,5.6-0.5,7.8-1c13.5-2.7,21.6-10.3,29.1-17.2
	c0.3-0.3,0.4-0.6,0.5-1C77.2,20,77,19.6,76.8,19.3z"/>
<path fill-rule="evenodd" clip-rule="evenodd" fill="#525353" d="M38.6,11.1c-1,0-2,0.2-2.9,0.5c1.8,0.5,3.2,2.2,3.2,4.2
	c0,2.4-2,4.4-4.4,4.4c-2,0-3.7-1.4-4.2-3.2c-0.3,0.9-0.5,1.9-0.5,2.9c0,4.8,3.9,8.7,8.7,8.7c4.8,0,8.7-3.9,8.7-8.7
	C47.3,15,43.4,11.1,38.6,11.1z"/>
</svg>
