<?xml version="1.0" encoding="utf-8"?>
<!-- Generator: Adobe Illustrator 18.1.1, SVG Export Plug-In . SVG Version: 6.00 Build 0)  -->
<svg version="1.1" id="_x31_" xmlns="http://www.w3.org/2000/svg" xmlns:xlink="http://www.w3.org/1999/xlink" x="0px" y="0px"
	 viewBox="0 0 366.9 306.5" enable-background="new 0 0 366.9 306.5" xml:space="preserve">
<path fill-rule="evenodd" clip-rule="evenodd" d="M32.9,243.8H2.6v-8.3h43v7.1l-31.3,38.1v0.2H46v8.4H1.6v-7L32.9,244V243.8
	L32.9,243.8z M90.6,289.3h-7.9v-5.5c-3.4,4.1-7.9,6.1-13.6,6.1c-4.3,0-7.8-1.2-10.6-3.6c-2.8-2.4-4.2-5.6-4.2-9.7
	c0-4,1.5-7.1,4.5-9.1c3-2,7-3,12.1-3H82V263c0-5.4-3-8.2-9.1-8.2c-3.8,0-7.8,1.4-11.9,4.2l-3.9-5.4c5-4,10.6-5.9,17-5.9
	c4.8,0,8.8,1.2,11.8,3.7c3.1,2.4,4.6,6.3,4.6,11.5V289.3L90.6,289.3z M82,274.1v-3.5h-9.7c-6.2,0-9.3,2-9.3,5.9c0,2,0.8,3.5,2.3,4.6
	c1.5,1.1,3.7,1.6,6.4,1.6c2.7,0,5.2-0.8,7.2-2.3C80.9,278.8,82,276.7,82,274.1L82,274.1z M129.6,281.1c3.1,0,5.8-0.5,8.1-1.6
	c2.3-1.1,4.6-2.7,7.1-5l5.9,6c-5.7,6.3-12.6,9.5-20.8,9.5c-8.1,0-14.9-2.6-20.3-7.9c-5.4-5.2-8.1-11.9-8.1-19.9s2.7-14.7,8.2-20
	c5.5-5.3,12.4-8,20.7-8s15.3,3.1,20.9,9.2l-5.8,6.3c-2.6-2.5-5-4.2-7.3-5.2c-2.3-1-5-1.5-8.1-1.5c-5.4,0-10,1.8-13.7,5.3
	c-3.7,3.5-5.5,8-5.5,13.5c0,5.5,1.8,10,5.5,13.7C120.2,279.2,124.6,281.1,129.6,281.1L129.6,281.1z M183.2,256.4
	c-4.3,0-7.5,1.4-9.6,4.2c-2.2,2.8-3.2,6.5-3.2,11.2v17.6h-8.6v-41h8.6v8.2c1.4-2.6,3.3-4.7,5.7-6.3c2.4-1.6,4.9-2.5,7.6-2.5l0.1,8.7
	C183.5,256.4,183.3,256.4,183.2,256.4L183.2,256.4z M198.6,305.7c-3.8,0-7.1-1.4-10.2-4.1l3.9-7c1.8,1.7,3.7,2.5,5.6,2.5
	c1.9,0,3.5-0.7,4.7-2.1c1.2-1.4,1.8-2.9,1.8-4.5c0-0.7-5.5-14.8-16.6-42.2h9.2l12.3,30.2l12.3-30.2h9.2L211,297
	c-1.2,2.7-2.9,4.8-5.1,6.3C203.7,304.9,201.3,305.7,198.6,305.7L198.6,305.7z M260.8,247.7c5.5,0,10.2,1.9,14.1,5.7
	c3.9,3.8,5.9,8.9,5.9,15.2S278.8,280,275,284c-3.9,4-8.4,5.9-13.6,5.9s-9.8-2.3-13.9-6.8v21.1h-8.6v-55.9h8.6v7.2
	C250.9,250.3,255.3,247.7,260.8,247.7L260.8,247.7z M247.3,268.9c0,3.9,1.2,7.1,3.5,9.6c2.4,2.5,5.2,3.7,8.6,3.7s6.3-1.2,8.9-3.7
	c2.5-2.5,3.8-5.7,3.8-9.6c0-3.9-1.2-7.2-3.7-9.8c-2.5-2.6-5.4-3.9-8.9-3.9c-3.4,0-6.3,1.3-8.7,3.9
	C248.5,261.7,247.3,265,247.3,268.9L247.3,268.9z M302.5,255.3v20.8c0,2,0.5,3.5,1.5,4.7c1,1.2,2.5,1.7,4.3,1.7
	c1.8,0,3.6-0.9,5.3-2.7l3.5,6.1c-3,2.7-6.4,4.1-10.1,4.1c-3.7,0-6.8-1.3-9.4-3.8c-2.6-2.5-3.9-6-3.9-10.3v-20.6h-5.2v-6.9h5.2v-12.9
	h8.6v12.9h10.8v6.9H302.5L302.5,255.3z M334.5,278.5c2.4,2.5,5.5,3.7,9.3,3.7c3.8,0,6.8-1.2,9.3-3.7c2.4-2.5,3.7-5.7,3.7-9.7
	c0-4-1.2-7.2-3.7-9.7c-2.4-2.5-5.5-3.7-9.3-3.7c-3.8,0-6.8,1.2-9.3,3.7c-2.4,2.5-3.7,5.7-3.7,9.7C330.8,272.8,332.1,276,334.5,278.5
	L334.5,278.5z M359.2,283.8c-4.1,4.1-9.2,6.1-15.4,6.1c-6.2,0-11.3-2-15.4-6.1c-4.1-4.1-6.2-9.1-6.2-15c0-5.9,2.1-10.9,6.2-15
	c4.1-4.1,9.2-6.1,15.4-6.1c6.2,0,11.3,2,15.4,6.1c4.1,4.1,6.2,9.1,6.2,15C365.4,274.7,363.3,279.7,359.2,283.8z"/>
<g id="заливка">
	<circle fill="#FFFFFF" cx="182.5" cy="107" r="94"/>
</g>
<linearGradient id="SVGID_1_" gradientUnits="userSpaceOnUse" x1="83.3569" y1="132.4621" x2="202.9493" y2="12.8697">
	<stop  offset="0" style="stop-color:#74B3C9"/>
	<stop  offset="1" style="stop-color:#83CCA8"/>
</linearGradient>
<path fill-rule="evenodd" clip-rule="evenodd" fill="url(#SVGID_1_)" d="M209,5.5c7.6,20.8,11.2,42.3,11.2,63.6
	c-30.9,0.9-61.2,9.5-88.1,25c-18.4,10.6-35.2,24.6-49.4,41.5c-4.9-17.1-5.5-35.7-0.8-54.2C96.1,25.3,153-8.7,209,5.5z"/>
<linearGradient id="SVGID_2_" gradientUnits="userSpaceOnUse" x1="142.8249" y1="185.0545" x2="181.3025" y2="146.5768">
	<stop  offset="0" style="stop-color:#437085"/>
	<stop  offset="1" style="stop-color:#23465F"/>
</linearGradient>
<path fill-rule="evenodd" clip-rule="evenodd" fill="url(#SVGID_2_)" d="M197.9,157.8c18.4,10.6,38.9,18.2,60.7,22
	c-25.2,25.9-63.1,38.1-100.7,28.6c-37.6-9.5-65.2-38.1-75.1-72.9c14.2-16.9,31-30.9,49.4-41.5c4.2,6.8,8.8,13.3,13.8,19.5
	l-26.5,26.5c-3.1,3.1-3.1,8.2,0,11.3l0,0c3.1,3.1,8.2,3.1,11.3,0l25.8-25.8c2.8,2.9,5.6,5.6,8.5,8.3l-11.5,11.5
	c-3.1,3.1-3.1,8.2,0,11.3l0,0c3.1,3.1,8.2,3.1,11.3,0l12.5-12.5C183.9,149.2,190.8,153.7,197.9,157.8z"/>
<path fill-rule="evenodd" clip-rule="evenodd" fill="#234557" d="M132.2,94.1c4.2,6.8,8.8,13.3,13.9,19.5l-5.8,5.8
	c-32.9,0.7-57.4,16.3-57.5,16.2C96.9,118.6,113.8,104.7,132.2,94.1z"/>
<linearGradient id="SVGID_3_" gradientUnits="userSpaceOnUse" x1="190.9279" y1="135.5302" x2="255.2277" y2="71.2304">
	<stop  offset="0" style="stop-color:#467388"/>
	<stop  offset="1" style="stop-color:#85C9A1"/>
</linearGradient>
<path fill-rule="evenodd" clip-rule="evenodd" fill="url(#SVGID_3_)" d="M209,5.5c37.6,9.5,65.2,38.2,75.1,72.9
	c4.9,17.1,5.5,35.7,0.8,54.2c-4.7,18.5-14,34.6-26.4,47.3c-21.8-3.8-42.2-11.4-60.7-22c14.7-27.3,22.4-57.8,22.4-88.8
	C220.2,47.8,216.6,26.2,209,5.5z"/>
<path fill-rule="evenodd" clip-rule="evenodd" fill="#5A9685" d="M209,5.5c7.6,20.8,11.2,42.3,11.2,63.6
	c-10.4,0.3-20.7,1.5-30.8,3.5C209.8,43.4,209,6.4,209,5.5C209,5.5,209,5.5,209,5.5z"/>
<path fill-rule="evenodd" clip-rule="evenodd" fill="#38616F" d="M258.6,179.9c-21.8-3.8-42.2-11.4-60.7-22
	c4.8-8.9,8.9-18.2,12.1-27.7C227.2,162.3,258.6,179.9,258.6,179.9z"/>
</svg>
