<?xml version="1.0" encoding="utf-8"?>
<!-- Generator: Adobe Illustrator 23.0.3, SVG Export Plug-In . SVG Version: 6.00 Build 0)  -->
<svg version="1.1" id="_x31_" xmlns="http://www.w3.org/2000/svg" xmlns:xlink="http://www.w3.org/1999/xlink" x="0px" y="0px"
	 viewBox="0 0 65.2 56.7" style="enable-background:new 0 0 65.2 56.7;" xml:space="preserve">
<style type="text/css">
	.st0{fill-rule:evenodd;clip-rule:evenodd;fill:#C13D1B;}
</style>
<path class="st0" d="M32.9,56.7h-0.5c-0.2,0-0.4-0.1-0.7-0.2c-0.1,0-27.5-17.2-30.8-31.4c-0.3-0.9-0.5-1.9-0.7-2.9s-0.2-2-0.2-3
	c0-3.5,1-6.9,2.7-9.7c1.7-2.9,4.2-5.3,7.1-7l0.1-0.1c1.4-0.8,2.9-1.4,4.5-1.8C15.9,0.2,17.5,0,19.1,0c2.9,0,5.7,0.7,8.1,1.8
	c2,0.9,3.8,2.2,5.3,3.7C34.2,4,36,2.8,37.9,1.8C40.4,0.7,43.2,0,46.1,0c1.6,0,3.2,0.2,4.8,0.6s3.1,1,4.5,1.8l0,0
	c3,1.7,5.5,4.1,7.3,7.1c1.7,2.9,2.6,6.2,2.6,9.7c0,1-0.1,2-0.2,3c-0.2,1-0.4,2-0.7,2.9C61,39,34.6,55.8,33.5,56.4
	C33.3,56.6,33.1,56.7,32.9,56.7z"/>
</svg>
